<svg width="16" height="16" viewBox="0 0 16 16" fill="none" xmlns="http://www.w3.org/2000/svg">
<g clip-path="url(#clip0_6_15)">
<path d="M14.5714 14.2854C14.931 14.2854 15.2427 14.1666 15.5076 13.9321L10.9745 9.3989C10.8658 9.47678 10.7603 9.55251 10.6608 9.62452C10.3215 9.87446 10.0462 10.0695 9.83479 10.2092C9.6234 10.3493 9.34215 10.4921 8.99107 10.6379C8.63975 10.7838 8.31245 10.8565 8.00883 10.8565H7.99995H7.99106C7.68741 10.8565 7.36011 10.7838 7.00882 10.6379C6.65754 10.4921 6.37628 10.3493 6.1651 10.2092C5.95371 10.0695 5.67853 9.87449 5.33912 9.62452C5.24454 9.55518 5.13964 9.4791 5.02624 9.39768L0.49231 13.9321C0.757207 14.1666 1.06905 14.2854 1.42867 14.2854H14.5714Z" fill="white"/>
<path d="M0.901882 6.54451C0.562678 6.31837 0.261876 6.05937 0 5.76763V12.6646L3.99542 8.66915C3.19611 8.11112 2.16624 7.40372 0.901882 6.54451Z" fill="white"/>
<path d="M15.1072 6.54452C13.8911 7.36765 12.8575 8.07626 12.0062 8.67075L16.0001 12.6647V5.76763C15.744 6.0535 15.4464 6.31233 15.1072 6.54452Z" fill="white"/>
<path d="M14.5713 1.71409H1.42861C0.970096 1.71409 0.617587 1.86892 0.370642 2.17826C0.123493 2.48775 0.00012207 2.87479 0.00012207 3.33897C0.00012207 3.7139 0.163842 4.12015 0.491137 4.55783C0.818432 4.99534 1.1667 5.33898 1.53577 5.58895C1.73809 5.7319 2.34824 6.15607 3.3662 6.86132C3.91572 7.24212 4.39361 7.57404 4.80427 7.86046C5.15431 8.10435 5.45619 8.31557 5.70543 8.49085C5.73404 8.51092 5.77904 8.54311 5.83876 8.58581C5.90311 8.63203 5.98453 8.69068 6.08498 8.76321C6.27842 8.90311 6.43912 9.0162 6.56711 9.10259C6.69492 9.18901 6.84978 9.28554 7.03146 9.39273C7.21298 9.49978 7.3842 9.58027 7.5449 9.63381C7.70562 9.68732 7.85441 9.71416 7.99129 9.71416H8.00018H8.00907C8.14592 9.71416 8.29474 9.68732 8.45549 9.63381C8.61616 9.58027 8.78723 9.49995 8.96891 9.39273C9.1504 9.28554 9.30506 9.18881 9.43328 9.10259C9.56127 9.0162 9.72197 8.90314 9.91544 8.76321C10.0157 8.69068 10.0971 8.632 10.1615 8.58596C10.2212 8.54308 10.2662 8.5111 10.295 8.49085C10.4891 8.35574 10.7917 8.1454 11.1985 7.86293C11.9387 7.34862 13.0289 6.59163 14.4735 5.58895C14.908 5.28548 15.271 4.91926 15.5628 4.49081C15.854 4.06237 16 3.61296 16 3.14271C16 2.74983 15.8584 2.41364 15.5759 2.13364C15.2931 1.85399 14.9582 1.71409 14.5713 1.71409Z" fill="white"/>
</g>
<defs>
<clipPath id="clip0_6_15">
<rect width="16" height="16" fill="white"/>
</clipPath>
</defs>
</svg>
