<svg width="42" height="42" viewBox="0 0 42 42" fill="none" xmlns="http://www.w3.org/2000/svg">
<path d="M41.5 1V0.5H41H7C3.41015 0.5 0.5 3.41015 0.5 7V35C0.5 38.5899 3.41015 41.5 7 41.5H41H41.5V41V1Z" fill="#7E82EE"/>
<path d="M41.5 1V0.5H41H7C3.41015 0.5 0.5 3.41015 0.5 7V35C0.5 38.5899 3.41015 41.5 7 41.5H41H41.5V41V1Z" fill="url(#paint0_linear_6_29)" fill-opacity="0.4"/>
<path d="M41.5 1V0.5H41H7C3.41015 0.5 0.5 3.41015 0.5 7V35C0.5 38.5899 3.41015 41.5 7 41.5H41H41.5V41V1Z" stroke="#7B7EF1"/>
<defs>
<linearGradient id="paint0_linear_6_29" x1="21" y1="1" x2="21" y2="41" gradientUnits="userSpaceOnUse">
<stop stop-color="white"/>
<stop offset="1" stop-color="white" stop-opacity="0"/>
</linearGradient>
</defs>
</svg>
