<svg width="42" height="42" viewBox="0 0 42 42" fill="none" xmlns="http://www.w3.org/2000/svg">
<path d="M1 0.5H0.5V1V41V41.5H1H35C38.5899 41.5 41.5 38.5899 41.5 35V7C41.5 3.41015 38.5899 0.5 35 0.5H1Z" fill="#F05858"/>
<path d="M1 0.5H0.5V1V41V41.5H1H35C38.5899 41.5 41.5 38.5899 41.5 35V7C41.5 3.41015 38.5899 0.5 35 0.5H1Z" fill="url(#paint0_linear_6_22)" fill-opacity="0.4"/>
<path d="M1 0.5H0.5V1V41V41.5H1H35C38.5899 41.5 41.5 38.5899 41.5 35V7C41.5 3.41015 38.5899 0.5 35 0.5H1Z" stroke="#E34F4F"/>
<defs>
<linearGradient id="paint0_linear_6_22" x1="21" y1="1" x2="21" y2="41" gradientUnits="userSpaceOnUse">
<stop stop-color="white"/>
<stop offset="1" stop-color="white" stop-opacity="0"/>
</linearGradient>
</defs>
</svg>
